<svg width="28" height="25" viewBox="0 0 28 25" fill="none" xmlns="http://www.w3.org/2000/svg">
<path d="M22.3294 18.3598L26.5097 21.1656C27.1252 21.5787 27.2893 22.4126 26.8761 23.0281V23.0281C26.463 23.6436 25.6291 23.8077 25.0136 23.3945L20.8333 20.5887L22.3294 18.3598Z" fill="white"/>
<path d="M25 12.5C25 19.4036 19.4036 25 12.5 25C5.59644 25 0 19.4036 0 12.5C0 5.59644 5.59644 0 12.5 0C19.4036 0 25 5.59644 25 12.5ZM1.79072 12.5C1.79072 18.4146 6.58543 23.2093 12.5 23.2093C18.4146 23.2093 23.2093 18.4146 23.2093 12.5C23.2093 6.58543 18.4146 1.79072 12.5 1.79072C6.58543 1.79072 1.79072 6.58543 1.79072 12.5Z" fill="white"/>
</svg>
